<?xml version="1.0" encoding="utf-8"?>
<!-- Generator: Adobe Illustrator 28.0.0, SVG Export Plug-In . SVG Version: 6.00 Build 0)  -->
<svg version="1.1" id="Layer_1" xmlns="http://www.w3.org/2000/svg" xmlns:xlink="http://www.w3.org/1999/xlink" x="0px" y="0px"
	 viewBox="0 0 300 300" style="enable-background:new 0 0 300 300;" xml:space="preserve">
<style type="text/css">
	.st0{fill:url(#SVGID_1_);}
	.st1{fill:url(#SVGID_00000183939686290454652080000005472825764856893855_);}
	.st2{fill:url(#SVGID_00000154427366402938693070000013951663373719829666_);}
</style>
<g>
	<linearGradient id="SVGID_1_" gradientUnits="userSpaceOnUse" x1="98.7168" y1="145.2603" x2="201.6465" y2="145.2603">
		<stop  offset="0" style="stop-color:#784E9F"/>
		<stop  offset="5.766752e-02" style="stop-color:#7D4A98"/>
		<stop  offset="0.3455" style="stop-color:#8E3781"/>
		<stop  offset="0.5101" style="stop-color:#942E7A"/>
		<stop  offset="0.5764" style="stop-color:#8C2C77"/>
		<stop  offset="0.7119" style="stop-color:#802874"/>
		<stop  offset="0.8514" style="stop-color:#782672"/>
		<stop  offset="1" style="stop-color:#762671"/>
	</linearGradient>
	<path class="st0" d="M115.3,160.3c7.9,7.5,17.8,12.5,28,14.6v-18c-18.5-3.1-39.1-8.9-39.1-31.8c0-21.2,17-34.4,39.1-37.4v-16h20.3
		v15.9c15.7,1.6,28.4,7.1,36.5,15.2l-18,24.3c-5.2-5.2-11.5-9.1-18.5-11.3v16.7c18,3.2,38.1,8.8,38.1,31.6
		c0,21.4-16.2,34.4-38.1,38.1v16.7h-20.3V203c-17-1.3-35.7-7.1-44.6-16.5L115.3,160.3z M143.3,128.7v-14.3c-4.5,1-7.3,3.4-7.3,7.5
		C136,125.3,138.8,127.3,143.3,128.7z M163.6,160.5v14.8c5.3-1.1,8.3-3.7,8.3-7.9C171.8,163.9,168.6,162,163.6,160.5z"/>
</g>
<g>
	
		<linearGradient id="SVGID_00000155865207044546304490000011264326117966269862_" gradientUnits="userSpaceOnUse" x1="10.8784" y1="190.3547" x2="111.7402" y2="190.3547">
		<stop  offset="0" style="stop-color:#784E9F"/>
		<stop  offset="5.766752e-02" style="stop-color:#7D4A98"/>
		<stop  offset="0.3455" style="stop-color:#8E3781"/>
		<stop  offset="0.5101" style="stop-color:#942E7A"/>
		<stop  offset="0.5764" style="stop-color:#8C2C77"/>
		<stop  offset="0.7119" style="stop-color:#802874"/>
		<stop  offset="0.8514" style="stop-color:#782672"/>
		<stop  offset="1" style="stop-color:#762671"/>
	</linearGradient>
	<path style="fill:url(#SVGID_00000155865207044546304490000011264326117966269862_);" d="M29.8,141.7l82,18.3l-15.8,23.1
		l-57.7-15.3l35.2,48.1L57.7,239l-46.8-69.8L29.8,141.7z"/>
</g>
<g>
	
		<linearGradient id="SVGID_00000154400084657677397600000016504937682514611600_" gradientUnits="userSpaceOnUse" x1="187.4824" y1="98.9331" x2="288.5371" y2="98.9331">
		<stop  offset="0" style="stop-color:#784E9F"/>
		<stop  offset="5.766752e-02" style="stop-color:#7D4A98"/>
		<stop  offset="0.3455" style="stop-color:#8E3781"/>
		<stop  offset="0.5101" style="stop-color:#942E7A"/>
		<stop  offset="0.5764" style="stop-color:#8C2C77"/>
		<stop  offset="0.7119" style="stop-color:#802874"/>
		<stop  offset="0.8514" style="stop-color:#782672"/>
		<stop  offset="1" style="stop-color:#762671"/>
	</linearGradient>
	<path style="fill:url(#SVGID_00000154400084657677397600000016504937682514611600_);" d="M269,147.9l-81.5-20.3l16.4-22.8
		l57.3,16.7l-34.1-48.9l16.4-22.8l45.1,70.9L269,147.9z"/>
</g>
</svg>
