<svg version="1.1" id="Layer_1" xmlns="http://www.w3.org/2000/svg" x="0" y="0" viewBox="0 0 300 300" style="enable-background:new 0 0 300 300" xml:space="preserve"><style>.st1{fill:url(#SVGID_00000183939686290454652080000005472825764856893855_)}.st2{fill:url(#SVGID_00000154427366402938693070000013951663373719829666_)}</style><linearGradient id="SVGID_1_" gradientUnits="userSpaceOnUse" x1="98.717" y1="145.26" x2="201.647" y2="145.26"><stop offset="0" style="stop-color:#784e9f"/><stop offset=".058" style="stop-color:#7d4a98"/><stop offset=".345" style="stop-color:#8e3781"/><stop offset=".51" style="stop-color:#942e7a"/><stop offset=".576" style="stop-color:#8c2c77"/><stop offset=".712" style="stop-color:#802874"/><stop offset=".851" style="stop-color:#782672"/><stop offset="1" style="stop-color:#762671"/></linearGradient><path d="M115.3 160.3c7.9 7.5 17.8 12.5 28 14.6v-18c-18.5-3.1-39.1-8.9-39.1-31.8 0-21.2 17-34.4 39.1-37.4v-16h20.3v15.9c15.7 1.6 28.4 7.1 36.5 15.2l-18 24.3c-5.2-5.2-11.5-9.1-18.5-11.3v16.7c18 3.2 38.1 8.8 38.1 31.6 0 21.4-16.2 34.4-38.1 38.1v16.7h-20.3V203c-17-1.3-35.7-7.1-44.6-16.5l16.6-26.2zm28-31.6v-14.3c-4.5 1-7.3 3.4-7.3 7.5 0 3.4 2.8 5.4 7.3 6.8zm20.3 31.8v14.8c5.3-1.1 8.3-3.7 8.3-7.9-.1-3.5-3.3-5.4-8.3-6.9z" style="fill:url(#SVGID_1_)"/><linearGradient id="SVGID_00000155865207044546304490000011264326117966269862_" gradientUnits="userSpaceOnUse" x1="10.878" y1="190.355" x2="111.74" y2="190.355"><stop offset="0" style="stop-color:#784e9f"/><stop offset=".058" style="stop-color:#7d4a98"/><stop offset=".345" style="stop-color:#8e3781"/><stop offset=".51" style="stop-color:#942e7a"/><stop offset=".576" style="stop-color:#8c2c77"/><stop offset=".712" style="stop-color:#802874"/><stop offset=".851" style="stop-color:#782672"/><stop offset="1" style="stop-color:#762671"/></linearGradient><path style="fill:url(#SVGID_00000155865207044546304490000011264326117966269862_)" d="m29.8 141.7 82 18.3L96 183.1l-57.7-15.3 35.2 48.1L57.7 239l-46.8-69.8 18.9-27.5z"/><linearGradient id="SVGID_00000154400084657677397600000016504937682514611600_" gradientUnits="userSpaceOnUse" x1="187.482" y1="98.933" x2="288.537" y2="98.933"><stop offset="0" style="stop-color:#784e9f"/><stop offset=".058" style="stop-color:#7d4a98"/><stop offset=".345" style="stop-color:#8e3781"/><stop offset=".51" style="stop-color:#942e7a"/><stop offset=".576" style="stop-color:#8c2c77"/><stop offset=".712" style="stop-color:#802874"/><stop offset=".851" style="stop-color:#782672"/><stop offset="1" style="stop-color:#762671"/></linearGradient><path style="fill:url(#SVGID_00000154400084657677397600000016504937682514611600_)" d="m269 147.9-81.5-20.3 16.4-22.8 57.3 16.7-34.1-48.9 16.4-22.8 45.1 70.9-19.6 27.2z"/></svg>